<?xml version="1.0" encoding="utf-8"?>
<!-- Generator: Adobe Illustrator 24.1.2, SVG Export Plug-In . SVG Version: 6.00 Build 0)  -->
<svg version="1.1" id="Слой_1" xmlns="http://www.w3.org/2000/svg" xmlns:xlink="http://www.w3.org/1999/xlink" x="0px" y="0px"
	 viewBox="0 0 3461.3 3445.76" style="enable-background:new 0 0 3461.3 3445.76;" xml:space="preserve">
<style type="text/css">
	.st0{fill:#FFFFFF;}
	.st1{fill:none;stroke:#FFFFFF;stroke-width:18.1561;stroke-miterlimit:10;}
</style>
<g>
	<path class="st0" d="M1983.25,2177.05c163.79-139.6,266.49-309.39,309.24-517.69c-70.06-4.11-136.55-4.11-201.98-12.48
		c-135.79-17.42-176.34-100.49-117-223.05c115.71-238.65,309.47-369.72,564.78-419.32c22.14-4.26,44.12-9.28,66.11-14.3
		c21.83-4.87,43.59-10.35,72.58-17.27c-10.35,72.5-21.6,139.98-28.53,207.91c-2.13,20.84,2.81,46.41,14.53,62.91
		c4.95,7.15,35.07-2.51,53.56-6.09c10.8-2.05,21.07-7.15,34.08-11.79c6.31,11.79,12.02,22.59,20.39,38.49
		c-95.24,41.38-187.75,81.63-285.28,124c6.77-75.85,14.3-144.69,18.79-213.69c4.26-66.87-12.78-83.83-77.75-72.88
		c-174.06,29.36-292.89,128.41-355.42,292.96c-24.04,63.29,15.97,124,83.22,128.64c41.92,2.89,84.21-0.08,126.36,1.07
		c28.91,0.84,36.97-13.31,33.63-39.18c-6.77-54.09-13.31-108.1-20.24-164.24c93.04,34.46,104.15,112.51,103.38,203.19
		c75.92,0,149.79-0.61,223.66,0.15c131.38,1.45,234.77,86.19,247.09,212.4c5.32,55.08-3.2,113.5-15.82,167.9
		c-58.8,253.56-196.04,446.4-448.08,536.17c-123.32,43.97-254.85,61.16-376.26-7.53c-54.39-30.89-97.38-81.78-143.93-122.25
		c-84.52,37.28-174.21,85.28-269.38,116.77c-181.13,59.95-367.36,61.24-547.74-0.61c-289.08-99.28-436.29-313.81-469.91-611.79
		c-18.56-165.54,5.33-325.45,70.75-478.81c105.82-248.15,351.16-377.1,616.51-321.87c208.52,43.36,360.29,160.82,432.33,362.8
		c88.78,248.76,167.52,501.1,250.66,751.92C1972.37,2144.04,1977.17,2158.64,1983.25,2177.05 M683.37,1602.69
		c2.21,149.33,29.14,284.52,100.42,407.53c108.25,186.76,267.63,316.32,477.29,360.44c203.12,42.83,400.99-2.97,584.33-101.56
		c9.21-4.87,15.67-29.52,11.87-41.31c-86.04-271.97-172.99-543.63-261.24-814.76c-38.19-117.15-106.5-211.79-211.94-279.65
		c-224.34-144.54-511.75-72.27-634,163.26C699.19,1394.63,687.94,1502.27,683.37,1602.69 M2382.57,1652.6
		c-69.08,234.23-202.89,418.26-384.18,566.68c48.61,125.98,137.77,190.95,248.61,196.35c326.97,15.9,528.95-320.12,508.94-564.47
		c-7.23-88.4-74.25-171.47-155.04-183.42C2529.47,1657.16,2456.36,1657.31,2382.57,1652.6"/>
	<circle class="st1" cx="1730.65" cy="1722.88" r="1642.6"/>
</g>
</svg>
